<?xml version="1.0" encoding="utf-8"?>
<!-- Generator: Adobe Illustrator 24.3.0, SVG Export Plug-In . SVG Version: 6.00 Build 0)  -->
<svg version="1.1" id="Layer_1" xmlns="http://www.w3.org/2000/svg" xmlns:xlink="http://www.w3.org/1999/xlink" x="0px" y="0px"
	 viewBox="0 0 80 80" style="enable-background:new 0 0 80 80;" xml:space="preserve">
<style type="text/css">
	.st0{fill:#374CA0;}
</style>
<g>
	<g>
		<path class="st0" d="M39.11,53.59c-0.39,1.97-2.4,3.18-4.32,2.58c-6.44-2-12.03-5.77-16-10.84c-4.81-6.15-6.68-13.46-5.26-20.59
			C16.22,11.31,30.01,2.5,45.22,3.88c2,0.18,3.4,2.07,3.01,4.04v0c-0.34,1.68-1.88,2.87-3.59,2.72C32.83,9.55,22.2,16.05,20.2,26.07
			c-1.03,5.16,0.37,10.52,3.95,15.08c3.12,3.98,7.55,6.96,12.69,8.55C38.47,50.21,39.45,51.9,39.11,53.59L39.11,53.59z"/>
	</g>
	<g>
		<path class="st0" d="M34.6,73.17L34.6,73.17c0-1.73,1.3-3.2,3.02-3.37c11.78-1.15,20.92-8.89,20.92-18.25
			c0-9.36-9.14-17.11-20.92-18.25c-1.72-0.17-3.02-1.64-3.02-3.37v0c0-2,1.73-3.58,3.72-3.38c15.19,1.51,27,12.15,27,25
			c0,12.85-11.81,23.49-27,25C36.33,76.74,34.6,75.17,34.6,73.17z"/>
	</g>
</g>
</svg>
